<svg height="512" viewBox="0 0 64 64" width="512" xmlns="http://www.w3.org/2000/svg"><g id="Icon"><path d="m34.61426 6.50879a3.00025 3.00025 0 0 0 -5.20655 0l-26.56103 46.38867a2.99994 2.99994 0 0 0 2.603 4.49121h53.12259a3.00079 3.00079 0 0 0 2.60351-4.49121z" fill="#ffb300"/><g fill="#212121"><path d="m32.022 41.39453a2.56161 2.56161 0 0 0 2.63135-2.64844l1.26856-16.68066a3.96978 3.96978 0 1 0 -7.89258-.01855l1.31637 16.70212a2.57906 2.57906 0 0 0 2.6763 2.64553z"/><path d="m35.01953 44.20215a4.919 4.919 0 0 0 -6.0415.001c-1.39752 1.38855-1.3974 4.83552-.00049 6.22461a4.92323 4.92323 0 0 0 6.043 0c1.39779-1.39176 1.3981-4.83364-.00101-6.22561z"/></g></g></svg>